<?xml version="1.0" encoding="UTF-8"?>
<svg width="1e3" height="1467.5" version="1.1" viewBox="0 0 264.58 388.29" xmlns="http://www.w3.org/2000/svg">
 <defs>
  <linearGradient id="logo_lg3" x1="6.2" x2="6.2" y1="44.997" y2=".7844" gradientTransform="matrix(7.4987 0 0 7.4987 -153.53 -290.07)" gradientUnits="userSpaceOnUse">
   <stop stop-color="#1444d6" offset="0"/>
   <stop stop-color="#26b3f5" offset="1"/>
  </linearGradient>
  <linearGradient id="logo_lg2" x1="3.9433" x2="30.845" y1="48.375" y2="32.843" gradientTransform="matrix(7.4987 0 0 7.4987 -153.53 -290.07)" gradientUnits="userSpaceOnUse">
   <stop stop-color="#35c7fc" offset="0"/>
   <stop stop-color="#1445d7" offset="1"/>
  </linearGradient>
  <linearGradient id="logo_lg1" x1="19.624" x2="34.617" y1="15.022" y2="40.99" gradientTransform="matrix(7.4987 0 0 7.4987 -153.53 -290.07)" gradientUnits="userSpaceOnUse">
   <stop class="" stop-color="#32c0fb" offset="0"/>
   <stop class="" stop-color="#0cd4e3" offset=".53317"/>
   <stop stop-color="#06dada" offset="1"/>
  </linearGradient>
 </defs>
 <g transform="translate(153.53 290.07)" stroke-width="7.4987">
  <path d="m111.05-40.796c0 3.8543-.21004 7.6862-.62987 11.465-2.4896 23.028-12.455 43.852-27.46 59.959 1.8896-2.0996 3.5919-4.3568 5.0916-6.7638 1.1548-1.8372 2.1746-3.7493 3.0445-5.744.31488-.65237.59988-1.3347.83985-2.0171.28514-.65237.52489-1.3347.73486-2.0171.23254-.62991.4424-1.2823.62988-1.9422.17993-.68237.36741-1.3648.52489-2.0471.02902-.07509.0526-.15744.08235-.23254.15744-.68237.28477-1.3647.41994-2.0471.13495-.7049.26265-1.4173.36741-2.1221v-.052602c.10484-.65241.17993-1.3123.23254-1.9947.15744-1.5447.23979-3.097.23979-4.6717 0-8.8634-2.437-17.179-6.7113-24.258-.96733-1.6497-2.0471-3.2244-3.2245-4.7242-1.3872-1.7846-2.887-3.4644-4.5142-5.0091-4.0418-3.9068-8.7585-7.1087-13.978-9.3658-2.2571-.99733-4.6192-1.8072-7.0262-2.4146-.02177 0-.08235-.02249-.10484-.02249l-.86234-.29994-12.223-4.1992v-.03011l-31.974-10.993c-.10484-.03011-.23979-.03011-.31488-.05249l-1.9946-.73486c-6.4264-2.5196-11.75-7.2362-15.08-13.243l-11.668-29.77-13.378-34.096-2.5721-6.5838-.65237-1.3348c-.73486-1.7847-1.1248-3.7268-1.1248-5.744 0-.52491 0-1.0498.0526-1.5222.75736-7.4987 7.1312-13.378 14.847-13.378 2.0471 0 4.0118.41993 5.7964 1.1773l59.592 30.557 11.75 6.0064c6.2164 3.6968 12.013 8.0536 17.307 12.958 19.197 17.629 31.787 42.33 33.677 69.955.15744 2.4446.26264 4.8816.26264 7.3487z" fill="url(#logo_lg1)"/>
  <path d="m95.132-1.0302c0 3.0445-.29239 5.9839-.80985 8.8409-.15744.75736-.31488 1.5222-.49493 2.2796-.34499 1.3647-.70487 2.677-1.1548 3.9893-.23254.68237-.47244 1.3647-.73486 2.0171-.26264.68237-.54742 1.3347-.83985 2.0171-.86238 1.9946-1.8897 3.9068-3.0445 5.744-1.4923 2.4146-3.202 4.6717-5.0916 6.7638-8.6834 9.5983-38.168 26.725-49.034 33.676l-24.116 14.742c-17.674 10.888-34.389 18.597-55.445 19.122-.99733.02902-1.9647.0526-2.9395.0526-1.3647 0-2.6995-.02902-4.0418-.08235-35.671-1.3648-66.776-20.509-84.72-48.809-8.211-12.928-13.64-27.775-15.477-43.725 3.8543 21.799 22.848 38.318 45.742 38.318 8.0236 0 15.552-2.0171 22.136-5.5865.0526-.02177.10484-.0526.15744-.07509l2.3621-1.4173 9.5983-5.669 12.223-7.2362v-.33738l1.5747-.94484 109.35-64.788 8.421-4.9866.83985.28496c.02902 0 .08235.02249.10484.02249 2.4146.5999 4.7767 1.4173 7.0262 2.4145 5.2191 2.2572 9.9432 5.459 13.978 9.3659 1.6272 1.5447 3.1194 3.2244 4.5142 5.0091 1.1773 1.4923 2.2571 3.067 3.2244 4.7242 4.2592 7.0937 6.6963 15.402 6.6963 24.273z" fill="url(#logo_lg2)"/>
  <path d="m-60.548-217.24-.03737 241.16-12.223 7.2437-9.6058 5.6615-2.3696 1.4323c-.03736 0-.10484.03737-.14257.07509-6.5913 3.5469-14.12 5.594-22.151 5.594-22.908 0-41.865-16.527-45.742-38.318-.17993-1.0048-.3225-2.0396-.42741-3.0444-.14257-1.9048-.24741-3.7645-.28514-5.6691v-271.41c0-8.571 6.9513-15.56 15.56-15.56 3.2244 0 6.2389 1.0048 8.7134 2.6545l47.564 31.074c.24741.21748.53991.39744.82487.5699 12.29 8.391 20.321 22.518 20.321 38.536z" fill="url(#logo_lg3)"/>
 </g>
</svg>
